<svg xmlns="http://www.w3.org/2000/svg" width="768" height="768" viewBox="0 0 768 768" version="1.1">
	<path fill-opacity="0.208" d="M 0.663 33.750 C 0.300 52.313, 0.002 225.113, 0.002 417.751 L 0 768.003 384.250 767.751 L 768.500 767.500 768.810 428 C 768.981 241.275, 768.816 68.588, 768.442 44.250 L 767.764 0 384.544 0 L 1.324 0 0.663 33.750 M 0.495 406.500 C 0.495 605.600, 0.610 686.901, 0.750 587.169 C 0.890 487.437, 0.890 324.537, 0.750 225.169 C 0.609 125.801, 0.495 207.400, 0.495 406.500 M 239.761 179.026 C 224.071 180.473, 212.907 185.486, 202.215 195.885 C 194.264 203.617, 188.773 213.615, 186.498 224.500 C 184.427 234.408, 184.325 536.385, 186.389 545 C 190.924 563.918, 208.050 579.156, 229.613 583.457 C 236.917 584.914, 252.563 585.042, 386.613 584.735 C 551.666 584.357, 540.142 584.830, 554.912 577.822 C 567.382 571.905, 579.508 556.511, 583.128 542 C 584.261 537.457, 584.500 509.445, 584.500 381 C 584.500 232.890, 584.413 225.217, 582.662 219.543 C 576.172 198.510, 562.033 185.602, 539.777 180.390 C 533.128 178.833, 520.253 178.666, 390.500 178.453 C 312.400 178.325, 244.567 178.583, 239.761 179.026 M 495.315 213.344 C 487.514 225.073, 479.526 237.407, 477.565 240.753 L 474 246.837 474 263.572 L 474 280.308 447.500 279.621 L 421 278.934 421 281.539 C 421 284.019, 421.083 284.060, 422.750 282.393 C 424.369 280.774, 424.524 280.768, 424.823 282.321 C 425.042 283.455, 426.136 284, 428.196 284 C 430.732 284, 431.045 284.241, 430.053 285.436 C 429.168 286.502, 429.146 287.404, 429.966 288.936 C 430.703 290.314, 430.726 291, 430.035 291 C 429.466 291, 429 291.909, 429 293.020 C 429 294.602, 429.516 294.945, 431.384 294.607 C 433.333 294.253, 433.676 294.524, 433.266 296.093 C 432.516 298.958, 434.754 301.202, 437.105 299.944 C 438.294 299.307, 439 299.290, 439 299.897 C 439 301.048, 436.926 301.769, 431.500 302.503 C 421.038 303.918, 418.920 303.956, 418.448 302.741 C 418.083 301.801, 412.133 301.500, 393.907 301.500 L 369.849 301.500 367.890 304.182 C 366.813 305.658, 362.572 312.622, 358.466 319.658 C 351.462 331.659, 351 332.817, 351 338.364 L 351 344.277 330.802 343.889 L 310.605 343.500 298.829 358 L 287.053 372.500 287.027 386.183 C 287.003 398.404, 286.810 399.925, 285.222 400.430 C 284.244 400.740, 276.098 400.577, 267.121 400.067 C 258.143 399.558, 250.204 399.368, 249.479 399.646 C 248.754 399.925, 245.682 403.381, 242.653 407.326 C 239.624 411.272, 236.325 415.405, 235.323 416.510 C 234.320 417.616, 231.782 420.654, 229.683 423.260 C 227.584 425.867, 225.195 428, 224.374 428 C 223.553 428, 223.110 427.631, 223.389 427.180 C 227.244 420.942, 227.317 342.522, 223.487 321.500 C 223.387 320.950, 223.165 317.575, 222.995 314 L 222.686 307.500 222.032 312.500 C 221.673 315.250, 221.280 360.499, 221.159 413.054 C 220.966 496.655, 221.128 509.063, 222.459 512.248 C 223.296 514.250, 224.235 518.010, 224.546 520.602 C 225.292 526.815, 227.070 530.048, 232.114 534.366 C 236.535 538.150, 243.020 540.760, 250.158 541.627 C 256.967 542.454, 273 542.785, 273 542.097 C 273 541.473, 278.031 540.951, 283.407 541.019 C 285.006 541.039, 289.731 539.617, 293.907 537.859 C 301.073 534.841, 302.203 534.661, 314 534.650 C 330.233 534.635, 336 535.084, 336 536.362 C 336 536.989, 336.475 536.925, 337.200 536.200 C 338.593 534.807, 340.380 534.576, 339.566 535.893 C 338.868 537.022, 343.711 538.297, 345.200 537.376 C 345.871 536.962, 346.027 537.147, 345.595 537.845 C 345.183 538.514, 345.487 539, 346.319 539 C 347.109 539, 348.331 539.694, 349.035 540.542 C 349.923 541.612, 350.634 541.766, 351.358 541.042 C 352.860 539.540, 354.029 539.761, 353.390 541.427 C 352.990 542.469, 353.403 542.707, 354.921 542.310 C 356.472 541.905, 357.008 542.241, 357.030 543.633 C 357.060 545.428, 357.101 545.430, 358.121 543.677 C 359.120 541.960, 359.290 541.952, 361.056 543.550 C 362.204 544.590, 363.909 545.059, 365.459 544.763 C 366.906 544.487, 368.467 544.857, 369.108 545.630 C 369.813 546.480, 371.169 546.745, 372.764 546.344 C 374.170 545.992, 375.051 546.107, 374.743 546.604 C 374.025 547.764, 381.296 547.781, 382.138 546.622 C 383.179 545.189, 384.959 546.919, 384.362 548.782 C 384.029 549.822, 384.144 550.077, 384.656 549.427 C 386.016 547.698, 388.996 546.918, 389.032 548.281 C 389.053 549.095, 389.470 549.001, 390.285 548 C 392.127 545.739, 393.933 545.751, 393.496 548.020 C 393.008 550.555, 394.453 550.547, 397 548 C 398.100 546.900, 400.012 545.993, 401.250 545.985 C 402.750 545.974, 403.083 545.704, 402.248 545.174 C 401.450 544.667, 402.809 543.914, 405.998 543.097 C 408.749 542.392, 411 541.354, 411 540.791 C 411 540.228, 412.125 539.982, 413.500 540.245 C 415.218 540.573, 416 540.278, 416 539.302 C 416 538.521, 416.370 538.110, 416.822 538.390 C 417.274 538.669, 418.938 538.226, 420.521 537.405 C 422.873 536.185, 432.207 534.794, 436.500 535.024 C 437.050 535.053, 441.845 535.173, 447.154 535.289 C 452.464 535.405, 456.626 535.796, 456.403 536.157 C 456.180 536.518, 456.968 536.560, 458.155 536.249 C 459.634 535.863, 460.088 536.049, 459.597 536.842 C 459.204 537.479, 459.359 538, 459.941 538 C 460.523 538, 461 537.523, 461 536.941 C 461 536.359, 461.363 536.106, 461.807 536.381 C 462.251 536.655, 464.614 537.128, 467.057 537.431 C 474.392 538.341, 475.952 538.802, 480.734 541.475 C 483.253 542.883, 486.106 543.784, 487.073 543.477 C 488.040 543.170, 489.067 543.300, 489.355 543.766 C 489.644 544.232, 491.931 544.544, 494.440 544.460 C 496.948 544.375, 499 544.742, 499 545.275 C 499 545.876, 499.476 545.857, 500.250 545.227 C 500.938 544.667, 503.750 544.152, 506.500 544.083 C 513.617 543.905, 517.475 543.442, 518.827 542.607 C 519.472 542.208, 520.399 542.129, 520.887 542.430 C 521.374 542.731, 522.325 542.313, 523 541.500 C 523.675 540.687, 524.589 540.246, 525.033 540.520 C 525.476 540.794, 526.550 540.307, 527.419 539.438 C 528.473 538.384, 529 538.266, 529 539.082 C 529 539.756, 530.623 538.636, 532.607 536.593 C 534.590 534.551, 536.464 533.131, 536.771 533.438 C 537.517 534.184, 541.962 526.748, 541.356 525.768 C 541.095 525.345, 541.385 525, 542 525 C 542.615 525, 542.864 524.588, 542.553 524.085 C 542.242 523.582, 542.328 523.020, 542.744 522.835 C 543.160 522.651, 544.625 520.281, 546 517.570 L 548.500 512.639 548.500 380.570 L 548.500 248.500 538.425 233.500 C 532.884 225.250, 527.050 216.250, 525.460 213.500 C 521.583 206.793, 511.078 191.998, 510.201 192.009 C 509.815 192.014, 503.117 201.615, 495.315 213.344 M 470.340 284.250 C 469.912 284.938, 469.692 286.505, 469.850 287.733 C 470.282 291.079, 469.288 292.060, 466.530 291.012 C 464.521 290.248, 464.154 290.398, 464.270 291.940 C 464.347 292.952, 464.917 293.585, 465.538 293.347 C 466.159 293.109, 466.667 293.628, 466.667 294.500 C 466.667 295.487, 466.110 295.872, 465.192 295.520 C 464.052 295.083, 463.971 295.260, 464.835 296.301 C 465.587 297.207, 465.622 297.978, 464.943 298.657 C 463.710 299.890, 464.633 302.654, 466.293 302.700 C 466.957 302.719, 469.863 303.049, 472.750 303.434 L 478 304.135 478.152 296.317 C 478.315 287.934, 478.308 284.939, 478.119 283.750 C 477.918 282.485, 471.168 282.919, 470.340 284.250 M 432.667 287.667 C 432.300 288.033, 432 288.798, 432 289.367 C 432 289.993, 432.466 289.934, 433.183 289.217 C 433.834 288.566, 434.134 287.801, 433.850 287.517 C 433.566 287.233, 433.033 287.300, 432.667 287.667 M 467 288 C 467 288.550, 467.450 289, 468 289 C 468.550 289, 469 288.550, 469 288 C 469 287.450, 468.550 287, 468 287 C 467.450 287, 467 287.450, 467 288 M 437 292.059 C 437 292.641, 437.450 292.840, 438 292.500 C 438.550 292.160, 439 291.684, 439 291.441 C 439 291.198, 438.550 291, 438 291 C 437.450 291, 437 291.477, 437 292.059 M 461 300 C 461 300.550, 461.450 301, 462 301 C 462.550 301, 463 300.550, 463 300 C 463 299.450, 462.550 299, 462 299 C 461.450 299, 461 299.450, 461 300 M 349 538.882 C 349 539.432, 349.450 540.160, 350 540.500 C 350.550 540.840, 351 540.668, 351 540.118 C 351 539.568, 350.550 538.840, 350 538.500 C 349.450 538.160, 349 538.332, 349 538.882 M 424.500 539.339 C 417.937 541.031, 415.672 542.335, 413.427 545.709 C 411.051 549.282, 410.959 558.289, 413.254 562.609 C 415.995 567.769, 419.314 568.500, 440 568.500 C 460.765 568.500, 462.295 568.105, 467.910 561.293 C 474.082 553.805, 471.287 544.362, 461.754 540.495 C 456.129 538.213, 431.797 537.458, 424.500 539.339 M 307.177 540.132 C 301.845 541.383, 296.600 546.400, 292.569 554.107 C 289.953 559.107, 289.769 560.029, 290.861 562.665 C 293.357 568.690, 295.615 569.174, 320.699 569.059 C 345.964 568.943, 349.595 568.186, 353.903 562.136 C 358.634 555.492, 357.116 548.648, 349.553 542.525 L 345.817 539.500 328.658 539.309 C 319.221 539.204, 309.554 539.575, 307.177 540.132 M 447.035 555.668 C 447.016 556.311, 446.727 557.548, 446.393 558.418 C 445.878 559.761, 446.772 560, 452.311 560 C 459.728 560, 462 559.389, 462 557.393 C 462 555.752, 457.438 555.482, 456.460 557.065 C 456.022 557.774, 455.238 557.620, 454.116 556.605 C 452.593 555.227, 452.303 555.286, 451.096 557.218 L 449.761 559.356 448.416 556.928 C 447.676 555.593, 447.055 555.026, 447.035 555.668" stroke="none" fill="black" fill-rule="evenodd"/>
	<path fill-opacity="0.282" d="M 169.500 91.487 C 150.826 94.539, 132.523 102.866, 119.191 114.377 C 103.284 128.111, 93.329 147.175, 87.794 174.500 C 86.028 183.219, 85.661 190.456, 84.928 231 C 84.465 256.575, 83.977 278.512, 83.843 279.750 C 83.599 282.006, 82 282.985, 82 280.878 C 82 280.064, 81.616 280.074, 80.605 280.913 C 79.535 281.801, 79.223 281.771, 79.263 280.785 C 79.423 276.856, 78.956 276.140, 76.526 276.581 C 74.881 276.879, 74.144 276.606, 74.328 275.765 C 74.480 275.069, 74.157 275.512, 73.609 276.750 C 73.021 278.079, 71.772 278.971, 70.557 278.930 C 68.523 278.860, 68.523 278.850, 70.500 278 C 72.113 277.307, 72.175 277.127, 70.821 277.070 C 69.898 277.032, 68.436 276.293, 67.571 275.429 C 66.643 274.500, 66 274.325, 66 275 C 66 275.675, 65.357 275.500, 64.429 274.571 C 63.074 273.217, 59.413 272.431, 56.676 272.906 C 56.222 272.985, 56.080 272.680, 56.359 272.228 C 56.638 271.777, 59.329 271.428, 62.338 271.454 C 65.371 271.479, 67.559 271.096, 67.248 270.592 C 66.940 270.093, 67.657 269.939, 68.843 270.249 C 70.028 270.559, 71.226 270.444, 71.504 269.994 C 71.782 269.544, 64.470 269.122, 55.255 269.056 C 40.575 268.951, 38.748 269.111, 40.500 270.347 C 41.690 271.186, 44.211 271.627, 46.726 271.435 C 49.050 271.258, 51.214 271.537, 51.535 272.056 C 51.856 272.575, 51.079 273.033, 49.809 273.074 C 48.539 273.115, 46.487 273.340, 45.250 273.574 C 44.013 273.808, 41.987 274.192, 40.750 274.426 C 39.513 274.660, 38.500 274.919, 38.500 275.002 C 38.500 275.085, 37.619 275.317, 36.543 275.518 C 35.466 275.719, 33.666 276.344, 32.543 276.907 C 31.419 277.469, 29.150 278.103, 27.500 278.315 C 24.929 278.645, 25.073 278.736, 28.500 278.948 C 32.270 279.182, 32.126 279.273, 26 280.536 C 22.425 281.274, 17.700 281.936, 15.500 282.009 C 12.384 282.111, 11.942 282.322, 13.500 282.963 L 15.500 283.785 13.500 284.553 C 11.169 285.447, 8 288.500, 8 289.851 C 8 290.365, 7.296 291.056, 6.437 291.386 C 5.577 291.716, 5.153 292.439, 5.496 292.993 C 5.838 293.547, 5.425 294, 4.578 294 C 3.705 294, 2.787 295.191, 2.459 296.750 C 2.140 298.262, 1.456 300.281, 0.940 301.236 C 0.361 302.305, -0 392.342, 0 535.488 L 0 768.003 384.250 767.751 L 768.500 767.500 768.500 525.401 C 768.500 323.099, 768.276 282.884, 767.139 280.759 C 766.390 279.361, 763.353 276.948, 760.389 275.397 C 754.896 272.524, 753.612 270.509, 756.750 269.689 C 757.712 269.438, 756.925 269.135, 755 269.017 C 753.075 268.899, 750.600 268.705, 749.500 268.586 C 748.400 268.467, 746.236 268.286, 744.691 268.185 C 743.108 268.081, 742.152 267.563, 742.500 267 C 742.881 266.384, 740.982 265.952, 737.559 265.875 C 732.386 265.759, 730.366 265.545, 729.750 265.048 C 727.908 263.564, 713.937 263.484, 713.029 264.953 C 712.711 265.468, 710.329 266.027, 707.737 266.195 C 705.144 266.363, 702.808 267.062, 702.543 267.750 C 702.252 268.507, 700.177 269.003, 697.281 269.008 C 693.164 269.015, 692.339 269.362, 691.344 271.509 C 690.468 273.396, 690.468 273.834, 691.344 273.309 C 692.783 272.447, 690.280 275.760, 687.291 278.674 L 685.062 280.847 684.583 277.674 C 684.319 275.928, 683.840 255.825, 683.518 233 C 682.764 179.405, 681.642 168.883, 674.831 151.500 C 662.750 120.669, 640.164 101.864, 604.342 92.812 L 595.500 90.577 386.500 90.378 C 218.407 90.218, 175.934 90.435, 169.500 91.487 M 234.500 178.685 C 216.444 181.155, 198.577 193.924, 190.656 210.019 C 183.684 224.184, 184.036 214.964, 184.025 384 C 184.019 483.669, 184.371 538.752, 185.044 543 C 188.176 562.793, 205.570 579.235, 228.879 584.436 C 235.484 585.910, 247.385 586.077, 342.379 586.032 C 506.898 585.953, 534.246 585.621, 541.985 583.604 C 552.487 580.867, 561.851 575.781, 568.295 569.315 C 578.702 558.873, 583.286 549.899, 585.017 536.583 C 586.371 526.172, 586.283 237.181, 584.924 227.406 C 581.644 203.829, 568.145 188.397, 544 180.625 C 537.531 178.542, 536.792 178.532, 387.500 178.404 C 305 178.333, 236.150 178.459, 234.500 178.685 M 502.419 203.722 C 498.617 209.650, 492.640 218.775, 489.138 224 C 485.636 229.225, 480.957 236.650, 478.739 240.500 L 474.707 247.500 474.604 264.224 L 474.500 280.948 477.308 281.566 L 480.116 282.184 479.529 355.842 C 478.859 439.921, 478.285 456.815, 476.441 446.649 C 476.182 445.221, 475.527 442.886, 474.985 441.461 C 474.443 440.036, 474 437.324, 474 435.435 C 474 433.546, 473.523 432, 472.941 432 C 472.359 432, 472.128 431.602, 472.428 431.116 C 472.729 430.630, 472.345 428.143, 471.577 425.589 C 470.808 423.035, 470.143 420.621, 470.098 420.223 C 470.053 419.825, 469.441 418.825, 468.737 418 C 468.034 417.175, 466.649 414.700, 465.661 412.500 C 462.351 405.130, 461.719 404.095, 460.652 404.298 C 460.068 404.409, 459.570 403.825, 459.545 403 C 459.514 402.009, 458.556 401.539, 456.718 401.614 C 455.189 401.677, 454.156 401.511, 454.421 401.245 C 455.331 400.336, 452.018 397.871, 450.853 398.591 C 450.107 399.052, 449.962 398.871, 450.447 398.086 C 450.862 397.414, 451.832 397.105, 452.601 397.400 C 453.408 397.710, 454 397.316, 454 396.469 C 454 395.135, 452.786 394.551, 450.719 394.892 C 450.290 394.963, 449.030 394.175, 447.921 393.141 C 445.935 391.291, 445.848 391.314, 442.433 394.630 C 440.525 396.484, 438.297 398, 437.482 398 C 436.667 398, 436 398.675, 436 399.500 C 436 400.325, 435.325 401, 434.500 401 C 433.675 401, 433 401.498, 433 402.107 C 433 402.716, 432.302 402.946, 431.448 402.618 C 430.558 402.277, 430.157 402.445, 430.507 403.011 C 430.843 403.555, 430.566 404, 429.892 404 C 429.218 404, 428.945 404.279, 429.286 404.619 C 429.626 404.960, 429.247 405.896, 428.443 406.700 C 427.639 407.504, 427.208 408.527, 427.484 408.974 C 427.760 409.421, 427.318 411.683, 426.500 414 C 425.682 416.317, 425.243 418.584, 425.523 419.037 C 426.123 420.009, 424.774 420.966, 422.071 421.486 C 420.797 421.732, 420.107 421.285, 420.055 420.180 C 420.010 419.256, 419.606 392.514, 419.157 360.753 C 418.708 328.993, 418.038 302.705, 417.670 302.337 C 416.347 301.014, 415.816 302.999, 414.504 314.165 C 412.631 330.110, 412.201 330.992, 406.275 331.034 C 377.073 331.245, 355.479 330.775, 354.950 329.918 C 353.306 327.258, 352.129 332.662, 351.558 345.500 C 350.314 373.422, 349.911 374.420, 340.212 373.585 C 335.356 373.167, 292.957 372.595, 289.250 372.898 C 288.317 372.974, 288 376.409, 288 386.441 C 288 394.323, 287.586 400.138, 287 400.500 C 286.420 400.859, 286 406.355, 286 413.594 C 286 425.681, 285.588 427.686, 282.214 432 C 281.999 432.275, 268.476 432.500, 252.162 432.500 L 222.500 432.500 222.239 471.584 L 221.977 510.668 224.987 514.823 C 228.391 519.522, 236.780 526.022, 238.560 525.338 C 239.208 525.090, 239.988 525.846, 240.294 527.018 L 240.852 529.148 243.009 526.991 C 245.288 524.712, 247.086 524.986, 245.151 527.318 C 244.025 528.675, 244.542 530, 246.199 530 C 246.675 530, 247.471 528.987, 247.969 527.750 L 248.873 525.500 248.937 527.750 C 248.971 528.987, 249.381 530, 249.847 530 C 250.313 530, 251.206 528.987, 251.832 527.750 C 252.819 525.796, 252.938 525.758, 252.734 527.464 C 252.586 528.704, 253.198 529.570, 254.393 529.815 C 255.868 530.116, 256.170 529.759, 255.761 528.195 C 255.363 526.673, 255.808 526.079, 257.602 525.736 C 259.663 525.342, 259.891 525.587, 259.375 527.642 C 259.020 529.057, 259.226 530, 259.892 530 C 260.501 530, 261 528.875, 261 527.500 C 261 525.667, 261.533 525, 263 525 C 264.100 525, 265 525.450, 265 526 C 265 526.550, 265.477 527, 266.059 527 C 266.641 527, 266.840 526.550, 266.500 526 C 266.160 525.450, 266.246 524.930, 266.691 524.843 C 269.685 524.264, 274.689 523.853, 282.500 523.545 C 287.450 523.350, 293.052 522.933, 294.948 522.618 C 298.280 522.064, 355.037 521.552, 367.750 521.961 C 371.188 522.071, 374 522.521, 374 522.960 C 374 523.400, 376.475 523.559, 379.500 523.314 C 383.127 523.021, 385 523.248, 385 523.979 C 385 525.572, 388.372 524.782, 389.180 523 C 389.746 521.751, 389.871 521.783, 389.930 523.193 C 389.977 524.332, 390.653 524.759, 392 524.500 C 393.100 524.288, 394 524.609, 394 525.212 C 394 525.816, 394.823 525.565, 395.829 524.655 C 397.981 522.707, 400.454 522.425, 399.387 524.250 C 398.985 524.938, 399.523 524.742, 400.583 523.816 C 402.334 522.287, 408.473 522.085, 467.505 521.611 C 503.252 521.324, 534.184 520.786, 536.242 520.415 C 538.883 519.939, 541.163 518.462, 543.992 515.393 L 548 511.045 548.232 437.772 C 548.359 397.473, 548.324 338.480, 548.153 306.678 L 547.842 248.855 535.317 229.678 C 516.538 200.923, 511.589 193.696, 510.406 193.302 C 509.815 193.105, 506.221 197.794, 502.419 203.722 M 722.750 256.662 C 723.438 256.940, 724.563 256.940, 725.250 256.662 C 725.938 256.385, 725.375 256.158, 724 256.158 C 722.625 256.158, 722.063 256.385, 722.750 256.662 M 73.750 271.662 C 74.438 271.940, 75.563 271.940, 76.250 271.662 C 76.938 271.385, 76.375 271.158, 75 271.158 C 73.625 271.158, 73.063 271.385, 73.750 271.662 M 0.492 535 C 0.492 663.425, 0.608 715.962, 0.750 651.750 C 0.892 587.537, 0.892 482.462, 0.750 418.250 C 0.608 354.037, 0.492 406.575, 0.492 535 M 446 395 C 445.099 395.582, 444.975 395.975, 445.691 395.985 C 446.346 395.993, 447.160 395.550, 447.500 395 C 448.267 393.758, 447.921 393.758, 446 395 M 460.459 407.067 C 460.096 407.653, 460.014 408.348, 460.276 408.610 C 460.538 408.872, 461.019 408.392, 461.345 407.543 C 462.021 405.781, 461.445 405.471, 460.459 407.067 M 391.639 527.694 C 390.513 528.820, 390.954 530, 392.500 530 C 393.325 530, 394 529.577, 394 529.059 C 394 527.798, 392.438 526.895, 391.639 527.694 M 520.553 527.915 C 520.231 528.436, 520.394 529.125, 520.915 529.447 C 521.436 529.769, 522.125 529.606, 522.447 529.085 C 522.769 528.564, 522.606 527.875, 522.085 527.553 C 521.564 527.231, 520.875 527.394, 520.553 527.915 M 265 529 C 265 529.550, 265.450 530, 266 530 C 266.550 530, 267 529.550, 267 529 C 267 528.450, 266.550 528, 266 528 C 265.450 528, 265 528.450, 265 529 M 380.500 529 C 380.160 529.550, 380.584 530, 381.441 530 C 382.298 530, 383 529.550, 383 529 C 383 528.450, 382.577 528, 382.059 528 C 381.541 528, 380.840 528.450, 380.500 529 M 385 529 C 385 529.550, 385.927 530, 387.059 530 C 388.191 530, 388.840 529.550, 388.500 529 C 388.160 528.450, 387.234 528, 386.441 528 C 385.648 528, 385 528.450, 385 529 M 510 529.059 C 510 529.641, 510.450 529.840, 511 529.500 C 511.550 529.160, 512 528.684, 512 528.441 C 512 528.198, 511.550 528, 511 528 C 510.450 528, 510 528.477, 510 529.059 M 514 529.059 C 514 529.641, 514.450 529.840, 515 529.500 C 515.550 529.160, 516 528.684, 516 528.441 C 516 528.198, 515.550 528, 515 528 C 514.450 528, 514 528.477, 514 529.059 M 306.637 541.465 C 300.881 543.517, 294 550.879, 294 554.985 C 294 556.146, 297.703 555.949, 299.728 554.679 C 300.404 554.256, 303.554 553.658, 306.728 553.350 C 309.903 553.043, 313.850 552.663, 315.500 552.505 C 317.150 552.348, 318.613 552.125, 318.750 552.010 C 319.438 551.433, 323.702 551.698, 324.816 552.386 C 325.515 552.818, 326.664 552.694, 327.368 552.110 C 328.276 551.356, 328.977 551.377, 329.781 552.181 C 330.627 553.027, 331.285 553.008, 332.369 552.109 C 333.179 551.437, 334.069 551.303, 334.381 551.807 C 334.688 552.304, 337.653 552.557, 340.970 552.370 L 347 552.028 347 555.392 C 347 557.242, 346.351 559.294, 345.558 559.952 C 344.572 560.770, 336.504 561.327, 320.040 561.713 C 297.459 562.242, 295.835 562.160, 293.893 560.403 C 291.841 558.546, 291.825 558.555, 292.161 561.415 C 292.366 563.159, 293.620 565.133, 295.329 566.401 C 298.034 568.408, 299.164 568.489, 321.126 568.260 C 335.795 568.106, 344.891 567.611, 346.297 566.888 C 350.151 564.907, 353.918 560.779, 355.077 557.267 C 356.717 552.298, 353.071 545.492, 347.068 542.318 C 342.998 540.165, 341.539 540.003, 326.593 540.044 C 315.565 540.074, 309.284 540.521, 306.637 541.465 M 419.962 542.250 C 412.553 545.986, 410.240 553.848, 414.074 562.262 C 416.082 566.671, 419.203 567.405, 437.595 567.797 C 457.931 568.229, 461.382 567.533, 466.392 561.988 C 472.889 554.796, 470.803 546.086, 461.579 541.896 C 458.143 540.336, 454.895 540.040, 440.962 540.022 C 425.775 540.002, 424.059 540.184, 419.962 542.250 M 418.236 552.570 C 417.418 553.168, 416.701 555.400, 416.630 557.575 L 416.500 561.500 438.547 561.500 C 457.970 561.500, 460.915 561.289, 463.297 559.727 C 469.375 555.740, 464.209 548.806, 457.686 552.196 C 456.471 552.828, 455.398 552.745, 454.436 551.947 C 453.319 551.019, 452.650 551.045, 451.424 552.063 C 450.121 553.144, 449.700 553.133, 449 552 C 448.348 550.945, 447.830 550.897, 446.752 551.791 C 445.685 552.676, 445.043 552.661, 444.051 551.726 C 443.023 550.757, 442.653 550.764, 442.290 551.756 C 442.036 552.447, 441.419 552.759, 440.918 552.450 C 439.137 551.349, 436.033 551.138, 435.452 552.078 C 435.127 552.603, 434.360 552.722, 433.746 552.343 C 431.931 551.221, 419.839 551.398, 418.236 552.570" stroke="none" fill="black" fill-rule="evenodd"/>
	<path fill-opacity="0.166" d="M 198 91.136 C 174.802 91.673, 169.310 92.093, 162.891 93.819 C 132.249 102.062, 113.229 116.221, 100.511 140.257 C 91.502 157.282, 88.199 172.603, 86.983 203 C 86.509 214.825, 86.024 304.150, 85.904 401.500 C 85.736 537.822, 85.973 580.979, 86.935 589.288 C 88.314 601.189, 88.055 603, 84.972 603 C 83.823 603, 83.160 603.450, 83.500 604 C 83.867 604.594, 82.697 605, 80.618 605 C 78.693 605, 76.840 605.450, 76.500 606 C 76.160 606.550, 74.109 607, 71.941 607 C 69.723 607, 68 607.485, 68 608.108 C 68 608.789, 66.938 608.997, 65.250 608.648 C 63.738 608.335, 63.063 608.324, 63.750 608.623 C 64.438 608.922, 65 609.483, 65 609.871 C 65 611.150, 61.036 610.900, 58.245 609.444 C 56.735 608.657, 56.138 608.010, 56.917 608.006 C 57.696 608.003, 58.146 607.814, 57.917 607.587 C 57.688 607.360, 55.587 607.524, 53.250 607.953 C 50.913 608.381, 49 608.363, 49 607.914 C 49 606.679, 41.636 607.593, 41.206 608.881 C 40.987 609.540, 38.377 610, 34.858 610 C 30.343 610, 29.066 609.694, 29.633 608.750 C 30.201 607.804, 29.996 607.814, 28.790 608.791 C 27.913 609.502, 25.014 610.343, 22.348 610.660 C 19.681 610.978, 16.742 611.634, 15.816 612.119 C 14.889 612.604, 13.087 613, 11.810 613 C 10.370 613, 8.352 614.361, 6.494 616.585 C 1.372 622.718, 0.810 630.699, 0.356 703.751 L -0.043 768.003 384.229 767.751 L 768.500 767.500 768.492 696 C 768.486 640.911, 768.199 623.999, 767.242 622.316 C 766.544 621.089, 764.797 619.994, 763.250 619.816 C 761.703 619.638, 760.609 618.953, 760.750 618.250 C 760.888 617.562, 760.663 617.053, 760.250 617.118 C 757.248 617.592, 751.985 616.833, 752.500 616 C 752.840 615.450, 752.641 615, 752.059 615 C 751.477 615, 750.971 615.563, 750.937 616.250 C 750.902 616.938, 750.466 616.488, 749.969 615.250 C 748.871 612.519, 746.363 612.390, 735.338 614.500 C 731.027 615.325, 723.589 616, 718.809 616 C 714.029 616, 709.879 616.387, 709.587 616.859 C 708.794 618.143, 699.069 619.054, 694.500 618.273 L 690.500 617.589 693.500 616.913 L 696.500 616.237 693.450 616.118 C 691.773 616.053, 689.794 615.438, 689.053 614.750 C 687.959 613.735, 687.852 613.782, 688.480 615 C 688.905 615.825, 688.053 615.263, 686.586 613.750 C 685.119 612.238, 683.538 611, 683.073 611 C 682.361 611, 681.284 607.355, 680.856 603.500 C 680.795 602.950, 681.263 598.900, 681.897 594.500 C 683.146 585.832, 683.184 404.164, 681.968 259.500 C 681.253 174.499, 681.167 173.277, 674.608 154.452 C 669.769 140.564, 663.750 130.771, 654 120.925 C 640.432 107.224, 626.589 99.704, 605.305 94.474 C 591.572 91.100, 575.981 90.286, 530 90.543 C 511.025 90.649, 470.554 90.809, 440.064 90.900 C 398.189 91.024, 384.259 91.362, 383.122 92.282 C 381.931 93.246, 381.773 93.239, 382.367 92.250 C 382.871 91.412, 382.440 91, 381.059 91 C 379.927 91, 379 91.450, 379 92 C 379 92.550, 377.875 93, 376.500 93 C 375.125 93, 374 92.550, 374 92 C 374 91.450, 373.298 91, 372.441 91 C 371.584 91, 371.160 91.450, 371.500 92 C 371.840 92.550, 371.454 93, 370.642 93 C 369.831 93, 369.017 92.580, 368.833 92.066 C 368.428 90.931, 237.627 90.219, 198 91.136 M 302 177.045 C 226.505 177.646, 228.941 177.446, 215 184.186 C 206.509 188.290, 194.457 200.149, 190.207 208.580 C 183.127 222.627, 183.588 210, 183.793 384.257 C 183.987 550.221, 183.938 548.420, 188.507 558 C 191.619 564.527, 192.473 566, 193.144 566 C 193.512 566, 193.577 566.900, 193.290 568 C 192.997 569.118, 193.259 570, 193.883 570 C 194.498 570, 195 571.098, 195 572.441 C 195 573.784, 195.438 575.153, 195.973 575.483 C 196.509 575.814, 197.666 577.528, 198.545 579.292 C 200.705 583.627, 210.068 591.420, 217.456 595.033 C 220.780 596.658, 227.100 598.926, 231.500 600.072 C 239.398 602.130, 241.245 602.159, 376 602.370 C 451.075 602.488, 516.550 602.278, 521.500 601.904 C 526.450 601.530, 533.650 600.450, 537.500 599.504 C 556.497 594.836, 573.282 581.017, 574.349 569.166 C 574.563 566.790, 575.624 563.642, 576.706 562.173 C 579.337 558.600, 583.826 547.203, 584.936 541.278 C 585.431 538.636, 585.948 467.654, 586.092 382.500 C 586.381 211.618, 586.712 220.847, 579.827 207.735 C 575.451 199.400, 565.155 189.117, 557.131 185.066 C 545.191 179.039, 538.120 177.818, 512.500 177.358 C 472.012 176.631, 372.570 176.484, 302 177.045 M 504.060 201.799 C 501.068 206.585, 494.954 216.149, 490.473 223.053 C 485.992 229.957, 480.666 238.626, 478.637 242.317 L 474.949 249.029 475.225 264.764 L 475.500 280.500 478.304 280.822 L 481.108 281.143 480.558 327.322 C 480.255 352.720, 479.754 403.639, 479.445 440.476 C 479.135 477.312, 478.676 507.657, 478.424 507.909 C 478.173 508.161, 477.434 507.834, 476.783 507.183 C 476.133 506.533, 474.677 505.993, 473.550 505.985 C 471.860 505.972, 471.763 505.799, 473 505 C 474.309 504.154, 474.295 504.029, 472.892 504.015 C 471.785 504.005, 471.318 503.151, 471.392 501.277 C 471.488 498.860, 471.050 498.473, 467.500 497.835 C 462.428 496.922, 428.333 496.968, 425 497.892 C 423.625 498.273, 421.825 499.916, 421 501.542 C 419.604 504.296, 419.458 503.084, 418.888 484 C 418.551 472.725, 418.214 427.639, 418.138 383.809 C 418.062 339.979, 417.624 303.886, 417.164 303.602 C 416.213 303.014, 413.933 322.117, 412.998 338.500 C 412.653 344.550, 412.287 348.033, 412.185 346.239 C 412.083 344.446, 411.050 340.958, 409.890 338.489 L 407.780 334 391.640 333.802 C 366.010 333.489, 357.578 333.765, 357.189 334.933 C 356.993 335.520, 356.394 336, 355.858 336 C 355.321 336, 355.094 335.658, 355.352 335.239 C 355.611 334.820, 355.200 333.626, 354.439 332.585 C 353.355 331.103, 352.950 330.997, 352.572 332.097 C 351.729 334.544, 350.922 364.707, 350.073 425.500 C 349.619 457.950, 349.118 485.063, 348.958 485.750 C 348.419 488.064, 347.324 487.025, 346.141 483.077 C 345.035 479.384, 344.761 479.173, 341.483 479.477 C 339.567 479.655, 338 479.369, 338 478.841 C 338 478.314, 337.597 478.131, 337.105 478.435 C 336.612 478.740, 335.943 478.293, 335.616 477.442 C 335.276 476.557, 335.445 476.157, 336.011 476.507 C 336.555 476.843, 337 476.641, 337 476.059 C 337 475.477, 336.362 475, 335.582 475 C 334.802 475, 333.447 474.725, 332.570 474.389 C 331.401 473.940, 331.143 474.209, 331.600 475.400 C 332.059 476.597, 331.800 476.860, 330.611 476.404 C 329.725 476.064, 329 475.437, 329 475.010 C 329 474.583, 328.136 474.007, 327.079 473.731 C 325.614 473.348, 325.245 473.675, 325.522 475.114 C 325.748 476.286, 325.317 477, 324.384 477 C 323.558 477, 323.160 476.550, 323.500 476 C 323.840 475.450, 323.529 474.993, 322.809 474.985 C 321.762 474.972, 321.771 474.798, 322.851 474.113 C 323.811 473.505, 323.311 473.126, 321.126 472.805 C 319.433 472.557, 317.922 472.734, 317.767 473.198 C 317.613 473.662, 315.914 474.145, 313.993 474.271 C 312.072 474.397, 309.905 475.063, 309.179 475.750 C 307.342 477.487, 304.650 477.354, 305.338 475.560 C 306.168 473.399, 299.386 474.090, 297.745 476.334 C 296.441 478.117, 293 477.766, 293 475.849 C 293 475.334, 292.212 475.045, 291.250 475.206 C 289.756 475.457, 289.409 474.402, 288.881 468 C 288.540 463.875, 288.203 453.161, 288.131 444.191 C 288.046 433.605, 287.649 428.099, 287 428.500 C 286.367 428.891, 285.996 441.106, 285.989 461.809 C 285.983 479.789, 285.699 496.188, 285.358 498.250 C 284.719 502.115, 283 503.469, 283 500.107 C 283 497.313, 281.232 496.998, 265.668 497.019 C 253.156 497.037, 239.192 498.388, 229.250 500.545 L 226 501.250 225.875 495.625 C 225.720 488.667, 225.676 488.343, 224.750 487.417 C 224.338 487.004, 224 481.042, 224 474.167 C 224 467.292, 223.788 461.879, 223.529 462.138 C 223.270 462.397, 222.998 473.481, 222.926 486.770 C 222.800 509.775, 222.896 511.095, 224.917 514.366 C 226.085 516.256, 227.714 518.060, 228.537 518.376 C 229.360 518.692, 299.800 518.960, 385.071 518.972 L 540.108 518.993 543.550 515.246 C 545.443 513.186, 547.240 510.150, 547.543 508.500 C 547.845 506.850, 547.960 447.675, 547.796 377 L 547.500 248.500 536 231.256 C 529.675 221.772, 521.433 209.284, 517.684 203.506 C 513.935 197.728, 510.560 193.022, 510.184 193.049 C 509.808 193.076, 507.052 197.014, 504.060 201.799 M 411.079 338.583 C 411.127 339.748, 411.364 339.985, 411.683 339.188 C 411.972 338.466, 411.936 337.603, 411.604 337.271 C 411.272 336.939, 411.036 337.529, 411.079 338.583 M 287.158 405 C 287.158 406.375, 287.385 406.938, 287.662 406.250 C 287.940 405.563, 287.940 404.438, 287.662 403.750 C 287.385 403.063, 287.158 403.625, 287.158 405 M 287.195 410.500 C 287.215 412.150, 287.439 412.704, 287.693 411.731 C 287.947 410.758, 287.930 409.408, 287.656 408.731 C 287.382 408.054, 287.175 408.850, 287.195 410.500 M 287.079 415.583 C 287.127 416.748, 287.364 416.985, 287.683 416.188 C 287.972 415.466, 287.936 414.603, 287.604 414.271 C 287.272 413.939, 287.036 414.529, 287.079 415.583 M 287.286 422.500 C 287.294 425.250, 287.488 426.256, 287.718 424.736 C 287.947 423.216, 287.941 420.966, 287.704 419.736 C 287.467 418.506, 287.279 419.750, 287.286 422.500 M 338 473.941 C 338 475.073, 338.450 476, 339 476 C 339.550 476, 340 475.352, 340 474.559 C 340 473.766, 339.550 472.840, 339 472.500 C 338.450 472.160, 338 472.809, 338 473.941 M 316.500 476 C 316.149 476.567, 316.990 477, 318.441 477 C 319.848 477, 321 476.550, 321 476 C 321 475.450, 320.127 475, 319.059 475 C 317.991 475, 316.840 475.450, 316.500 476 M 310.603 478.833 C 310.320 479.292, 310.743 479.667, 311.544 479.667 C 312.345 479.667, 313 479.292, 313 478.833 C 313 478.375, 312.577 478, 312.059 478 C 311.541 478, 310.886 478.375, 310.603 478.833 M 297 480.059 C 297 480.641, 297.450 480.840, 298 480.500 C 298.550 480.160, 299 479.684, 299 479.441 C 299 479.198, 298.550 479, 298 479 C 297.450 479, 297 479.477, 297 480.059 M 333.813 481.683 C 334.534 481.972, 335.397 481.936, 335.729 481.604 C 336.061 481.272, 335.471 481.036, 334.417 481.079 C 333.252 481.127, 333.015 481.364, 333.813 481.683 M 224.158 499 C 224.158 500.375, 224.385 500.938, 224.662 500.250 C 224.940 499.563, 224.940 498.438, 224.662 497.750 C 224.385 497.063, 224.158 497.625, 224.158 499 M 305.500 542.863 C 303.300 543.864, 300.847 545.542, 300.048 546.592 C 299.038 547.920, 299.008 548.134, 299.951 547.297 C 300.795 546.547, 301.913 546.418, 302.915 546.955 C 303.800 547.428, 309.243 548.120, 315.012 548.491 C 320.780 548.863, 327.525 549.317, 330 549.500 C 332.475 549.683, 336.863 549.870, 339.750 549.916 C 346.500 550.024, 349.463 552.539, 348.465 557.315 C 348.099 559.067, 347.282 561.026, 346.650 561.669 C 345.848 562.485, 337.570 562.938, 319.280 563.169 C 293.062 563.500, 293.061 563.500, 295.056 565.500 C 296.895 567.344, 298.629 567.526, 317.275 567.831 C 330.079 568.041, 339.424 567.740, 342.743 567.011 C 355.963 564.108, 358.953 550.797, 348.050 543.388 C 344.672 541.093, 343.855 541.001, 327.018 541.022 C 312.243 541.040, 308.874 541.329, 305.500 542.863 M 419.788 543.338 C 414.952 545.780, 413 548.890, 413.094 554 L 413.158 557.500 414.634 553.334 C 416.016 549.435, 416.508 549.047, 422.305 547.280 C 429.108 545.207, 448.733 544.111, 446 545.956 C 444.764 546.791, 444.882 546.972, 446.667 546.985 C 447.858 546.993, 449.096 547.563, 449.417 548.250 C 449.883 549.250, 450.117 549.250, 450.583 548.250 C 451.405 546.490, 453.056 546.697, 454.572 548.750 C 455.608 550.152, 456.117 550.252, 457.133 549.250 C 458.949 547.459, 463.637 547.709, 465.989 549.722 C 468.963 552.269, 468.554 556.356, 465.028 559.323 C 461.268 562.487, 453.734 563.267, 431.249 562.822 C 422.310 562.645, 414.998 562.826, 414.999 563.224 C 414.999 563.623, 416.328 564.635, 417.950 565.474 C 420.290 566.684, 424.815 567, 439.802 567 C 457.758 567, 458.870 566.887, 462.010 564.750 C 467.023 561.338, 469.273 557.717, 469.273 553.058 C 469.273 548.137, 467.182 545.462, 461.268 542.816 C 457.623 541.185, 454.749 540.940, 440.552 541.049 C 425.791 541.162, 423.621 541.401, 419.788 543.338 M 33.750 608.662 C 34.438 608.940, 35.563 608.940, 36.250 608.662 C 36.938 608.385, 36.375 608.158, 35 608.158 C 33.625 608.158, 33.063 608.385, 33.750 608.662 M 70.813 608.683 C 71.534 608.972, 72.397 608.936, 72.729 608.604 C 73.061 608.272, 72.471 608.036, 71.417 608.079 C 70.252 608.127, 70.015 608.364, 70.813 608.683 M 0.471 704.500 C 0.471 739.700, 0.597 753.955, 0.750 736.178 C 0.903 718.400, 0.903 689.600, 0.749 672.178 C 0.596 654.755, 0.471 669.300, 0.471 704.500" stroke="none" fill="black" fill-rule="evenodd"/>
	<path fill-opacity="0.429" d="M 640 114.117 C 640 114.760, 639.106 115, 637.889 114.681 C 636.351 114.279, 635.638 114.669, 635.258 116.121 C 634.941 117.332, 634.180 117.899, 633.317 117.568 C 632.530 117.266, 632.169 117.464, 632.507 118.011 C 632.843 118.555, 632.611 119, 631.992 119 C 631.320 119, 631.122 119.808, 631.500 121 C 631.975 122.497, 631.677 123.004, 630.317 123.015 C 628.910 123.027, 628.807 123.225, 629.863 123.894 C 631.014 124.623, 631.014 124.842, 629.863 125.300 C 628.718 125.755, 628.720 125.855, 629.872 125.921 C 631.036 125.988, 631.036 126.258, 629.872 127.692 C 628.940 128.842, 628.901 129.143, 629.750 128.633 C 631.390 127.648, 631.335 129.126, 629.607 132.457 C 628.824 133.966, 628.034 134.603, 627.804 133.911 C 627.504 133.013, 626.891 132.962, 625.532 133.722 C 623.804 134.689, 623.867 134.866, 626.409 136.198 C 628.760 137.430, 628.937 137.807, 627.663 138.865 C 626.706 139.659, 625.957 139.740, 625.557 139.092 C 624.848 137.944, 622 138.757, 622 140.107 C 622 140.598, 622.788 141.053, 623.750 141.118 C 624.712 141.183, 624.150 141.530, 622.500 141.889 C 620.105 142.410, 619.564 142.996, 619.817 144.793 C 620.150 147.165, 617.934 147.553, 617 145.287 C 616.668 144.481, 615.997 144.384, 615.005 144.997 C 613.723 145.789, 613.791 146.127, 615.478 147.360 C 616.560 148.152, 618.258 148.643, 619.250 148.452 C 620.324 148.245, 620.789 148.532, 620.400 149.162 C 620.032 149.758, 618.271 149.981, 616.373 149.673 C 614.518 149.372, 613 149.479, 613 149.910 C 613 150.341, 612.100 151.732, 611 153 C 609.842 154.335, 609 154.750, 609 153.986 C 609 153.261, 608.739 152.928, 608.419 153.248 C 608.099 153.567, 608.280 154.655, 608.820 155.664 C 610.279 158.392, 610.957 163.909, 609.912 164.554 C 609.410 164.864, 609 163.291, 609 161.059 C 609 158.827, 608.663 157, 608.250 157 C 607.308 157, 607.427 162.605, 608.447 166.250 C 608.871 167.762, 609.576 169, 610.014 169 C 610.453 169, 610.292 170.121, 609.656 171.492 C 609.020 172.863, 607.949 173.988, 607.275 173.992 C 606.384 173.998, 606.307 174.677, 606.993 176.482 C 607.768 178.521, 607.574 179.157, 605.904 180.051 C 604.438 180.836, 603.505 180.834, 602.551 180.043 C 601.531 179.196, 601.091 179.503, 600.616 181.394 C 600.278 182.740, 600.276 184.557, 600.612 185.432 C 601.074 186.634, 600.768 186.879, 599.361 186.436 C 597.728 185.921, 597.745 186.008, 599.500 187.148 C 600.600 187.863, 601.725 188.499, 602 188.563 C 602.275 188.626, 603.625 189.210, 605 189.862 L 607.500 191.046 604.629 190.474 C 602.382 190.026, 601.403 190.401, 600.129 192.201 C 598.573 194.397, 598.349 195.186, 598.106 199.309 C 598.048 200.304, 597.599 200.870, 597.108 200.567 C 596.618 200.264, 596.030 201.617, 595.802 203.574 C 595.469 206.422, 595.697 207.051, 596.943 206.727 C 598.063 206.436, 598.529 207.110, 598.605 209.130 C 598.663 210.675, 598.325 211.701, 597.855 211.410 C 597.385 211.120, 597 210.234, 597 209.441 C 597 208.571, 596.010 208, 594.500 208 C 593.125 208, 592 208.450, 592 209 C 592 209.550, 592.659 210, 593.465 210 C 594.270 210, 595.411 210.900, 596 212 C 596.922 213.723, 596.754 214.011, 594.785 214.079 C 593.528 214.122, 593.034 214.375, 593.688 214.641 C 594.492 214.969, 594.239 215.761, 592.901 217.099 C 591.030 218.970, 591.132 221.655, 593.029 220.482 C 593.519 220.179, 593.466 221.232, 592.912 222.822 C 591.795 226.026, 591.987 228.123, 593.500 229.235 C 594.167 229.724, 594.167 229.975, 593.500 229.987 C 592.546 230.003, 591.884 233.268, 591.621 239.250 C 591.554 240.762, 591.244 242, 590.932 242 C 590.620 242, 590.253 245.262, 590.116 249.250 C 589.775 259.237, 589.556 261.316, 588.700 262.688 C 588.292 263.341, 587.953 265.141, 587.947 266.688 C 587.940 268.235, 587.576 330.475, 587.139 405 L 586.344 540.500 582.644 553.913 C 580.609 561.290, 577.540 569.958, 575.826 573.176 C 567.885 588.074, 550.944 598.679, 529.823 601.973 C 524.512 602.802, 483.066 603.029, 379 602.800 C 219.075 602.449, 231.795 603.018, 216.435 595.522 C 195.527 585.317, 184.801 565.616, 183.486 535 C 183.214 528.675, 182.823 454.582, 182.616 370.348 C 182.409 286.115, 181.958 216.740, 181.613 216.183 C 181.269 215.627, 181.553 214.981, 182.244 214.748 C 183.243 214.412, 183.234 214.003, 182.201 212.752 C 181.285 211.641, 181.225 210.979, 182 210.500 C 182.775 210.021, 182.716 209.351, 181.799 208.219 C 180.701 206.865, 180.733 206.753, 182 207.500 C 183.290 208.260, 183.310 208.149, 182.137 206.704 C 180.972 205.267, 181.009 204.934, 182.387 204.405 C 185.565 203.186, 184.170 198.365, 180.786 198.870 C 180.393 198.928, 180.333 198.295, 180.653 197.462 C 181.073 196.367, 181.583 196.239, 182.500 197 C 183.415 197.759, 183.923 197.642, 184.332 196.577 C 184.681 195.669, 184.144 194.863, 182.934 194.479 C 181.855 194.136, 181.163 193.546, 181.397 193.167 C 182.197 191.872, 179.107 188.745, 177.599 189.324 C 176.584 189.713, 176.280 189.433, 176.656 188.455 C 176.960 187.661, 177.612 187.260, 178.105 187.565 C 178.597 187.869, 179 187.609, 179 186.988 C 179 186.332, 179.656 186.514, 180.564 187.421 C 181.424 188.281, 181.876 189.391, 181.570 189.888 C 181.263 190.384, 181.647 191.034, 182.423 191.332 C 183.199 191.630, 184.068 191.264, 184.354 190.520 C 184.640 189.775, 184.232 188.919, 183.448 188.618 C 182.360 188.201, 182.251 187.470, 182.986 185.536 C 183.924 183.068, 183.059 182.359, 179.750 182.882 C 178.526 183.075, 178.897 181.182, 180.250 180.334 C 180.938 179.903, 182.337 179.688, 183.359 179.856 C 184.505 180.045, 184.958 179.741, 184.540 179.065 C 184.167 178.461, 183.439 178.229, 182.922 178.548 C 182.406 178.867, 181.524 178.087, 180.963 176.814 C 179.946 174.506, 179.945 174.506, 180.378 176.750 C 180.699 178.411, 180.342 179, 179.013 179 C 177.263 179, 175.426 176.241, 176.476 175.190 C 176.764 174.902, 177 175.192, 177 175.833 C 177 176.475, 177.498 177, 178.107 177 C 178.716 177, 178.960 176.339, 178.651 175.532 C 178.341 174.725, 178.457 173.835, 178.910 173.556 C 179.362 173.276, 179.514 171.909, 179.248 170.518 C 178.982 169.127, 179.290 167.355, 179.933 166.581 C 180.855 165.470, 180.629 164.732, 178.862 163.086 C 177.631 161.939, 176.258 161, 175.811 161 C 175.365 161, 174.065 160.065, 172.923 158.923 C 171.780 157.780, 170.311 157.050, 169.658 157.301 C 168.831 157.618, 168.583 156.579, 168.840 153.878 C 169.130 150.842, 168.864 150, 167.617 150 C 166.626 150, 166.114 150.732, 166.262 151.937 C 166.600 154.688, 164.610 154.586, 163.957 151.819 C 163.637 150.462, 163.135 149.973, 162.731 150.626 C 162.355 151.234, 160.917 151.516, 159.536 151.252 C 158.154 150.987, 157.299 150.325, 157.637 149.779 C 158.498 148.386, 153.699 149.968, 152.765 151.385 C 151.952 152.619, 151.688 151.671, 151.939 148.414 C 152.028 147.267, 151.403 145.749, 150.550 145.042 C 149.698 144.334, 149 143.109, 149 142.319 C 149 141.528, 148.543 141.165, 147.984 141.510 C 147.425 141.856, 147.248 142.592, 147.590 143.146 C 147.967 143.755, 147.120 144.024, 145.450 143.827 C 143.455 143.591, 142.591 142.858, 142.341 141.189 C 142.095 139.549, 142.358 139.097, 143.247 139.631 C 144.247 140.232, 144.249 140.074, 143.259 138.850 C 142.576 138.006, 142.313 137.020, 142.675 136.658 C 143.037 136.296, 142.597 136, 141.698 136 C 140.585 136, 140.266 136.530, 140.700 137.661 C 141.206 138.978, 140.889 139.204, 139.169 138.754 C 137.703 138.371, 137 138.643, 137 139.594 C 137 140.367, 137.338 140.947, 137.750 140.882 C 139.905 140.541, 140.173 141.158, 138.441 142.468 C 135.743 144.509, 134.675 144.351, 135.290 142 C 135.630 140.700, 135.320 140, 134.406 140 C 133.633 140, 132.954 139.662, 132.899 139.250 C 132.843 138.838, 132.639 136.744, 132.446 134.597 C 132.252 132.450, 131.566 130.200, 130.922 129.597 C 130.040 128.772, 129.861 129.132, 130.198 131.053 C 130.665 133.709, 129.723 135.134, 126.750 136.269 C 125.600 136.708, 125 136.459, 125 135.542 C 125 134.775, 125.787 133.941, 126.750 133.689 C 128.361 133.268, 128.355 133.223, 126.683 133.116 C 125.365 133.032, 125.032 132.473, 125.473 131.084 C 125.808 130.030, 125.613 128.879, 125.041 128.525 C 124.401 128.130, 123.994 129.156, 123.985 131.191 C 123.974 133.438, 123.692 134.063, 123.106 133.137 C 122.377 131.986, 122.158 131.986, 121.700 133.137 C 121.276 134.204, 121.141 134.215, 121.079 133.191 C 121.036 132.471, 120.532 132.171, 119.960 132.525 C 119.296 132.935, 119.115 132.232, 119.460 130.584 C 120.699 124.655, 120.770 123.404, 119.975 121.500 C 119.202 119.648, 119.135 119.638, 119.070 121.367 C 119.019 122.729, 118.459 123.092, 116.999 122.710 C 115.898 122.422, 115.249 122.595, 115.558 123.093 C 115.866 123.592, 115.593 124, 114.952 124 C 114.282 124, 114.054 124.698, 114.416 125.641 C 114.931 126.983, 114.780 127.062, 113.593 126.077 C 112.423 125.106, 111.938 125.248, 111.105 126.804 C 110.536 127.867, 110.392 129.059, 110.785 129.452 C 111.178 129.845, 110.989 130.017, 110.365 129.833 C 108.994 129.431, 103.313 137.453, 99.214 145.581 C 91.613 160.652, 89.179 175.507, 88.004 214 C 86.669 257.721, 86.722 562.993, 88.068 578.328 C 90.938 611.031, 99.731 631.184, 119.106 649.461 C 128.856 658.659, 138.077 664.394, 148.997 668.053 C 165.380 673.541, 172.161 673.916, 264 674.401 C 309.925 674.644, 347.950 674.887, 348.500 674.940 C 349.050 674.993, 405.525 674.769, 474 674.440 C 612.324 673.777, 606.225 674.086, 622.579 666.914 C 635.005 661.464, 642.131 656.769, 651.551 647.824 C 661.752 638.138, 667.306 630.759, 672.107 620.512 C 677.523 608.956, 679.870 598.984, 680.930 583.029 C 681.457 575.095, 681.495 489.481, 681.022 376 C 680.298 202.601, 680.043 181.617, 678.568 174 C 674.092 150.894, 666.762 135.652, 654.037 122.991 C 645.600 114.597, 645.423 114.493, 642.658 116.304 C 640.395 117.788, 640.324 117.755, 640.770 115.422 C 641.025 114.090, 640.956 113, 640.617 113 C 640.277 113, 640 113.502, 640 114.117 M 637.500 117 C 637.160 117.550, 637.359 118, 637.941 118 C 638.523 118, 639 117.550, 639 117 C 639 116.450, 638.802 116, 638.559 116 C 638.316 116, 637.840 116.450, 637.500 117 M 634 120.059 C 634 120.641, 633.663 120.910, 633.250 120.655 C 632.837 120.400, 632.462 122.158, 632.415 124.561 C 632.351 127.856, 632.597 128.598, 633.415 127.580 C 634.012 126.838, 635.175 125.989, 636 125.694 C 636.969 125.347, 636.704 125.130, 635.250 125.079 C 632.708 124.990, 632.223 123.235, 634.500 122.362 C 636.167 121.722, 636.572 119, 635 119 C 634.450 119, 634 119.477, 634 120.059 M 117.459 127.067 C 117.096 127.653, 117.014 128.348, 117.276 128.610 C 117.538 128.872, 118.019 128.392, 118.345 127.543 C 119.021 125.781, 118.445 125.471, 117.459 127.067 M 121.079 128.250 C 121.132 129.753, 121.347 130.002, 121.729 129 C 122.043 128.175, 122.795 127.169, 123.400 126.765 C 124.078 126.312, 123.829 126.025, 122.750 126.015 C 121.574 126.005, 121.026 126.738, 121.079 128.250 M 140.651 132.468 C 140.341 133.275, 140.518 134.202, 141.044 134.527 C 141.570 134.852, 142 134.191, 142 133.059 C 142 130.644, 141.444 130.401, 140.651 132.468 M 620.613 135.183 C 620.902 135.650, 621.557 135.774, 622.069 135.457 C 623.377 134.649, 623.230 134.333, 621.544 134.333 C 620.743 134.333, 620.324 134.716, 620.613 135.183 M 616.702 140.333 C 616.421 141.067, 616.780 141.667, 617.500 141.667 C 618.220 141.667, 618.579 141.067, 618.298 140.333 C 618.016 139.600, 617.657 139, 617.500 139 C 617.343 139, 616.984 139.600, 616.702 140.333 M 622.813 143.683 C 623.534 143.972, 624.397 143.936, 624.729 143.604 C 625.061 143.272, 624.471 143.036, 623.417 143.079 C 622.252 143.127, 622.015 143.364, 622.813 143.683 M 146.736 146.598 C 145.834 147.499, 147.075 150.071, 148.105 149.435 C 148.597 149.131, 149 148.234, 149 147.441 C 149 145.968, 147.809 145.525, 146.736 146.598 M 153 147 C 153 147.550, 153.450 148, 154 148 C 154.550 148, 155 147.550, 155 147 C 155 146.450, 154.550 146, 154 146 C 153.450 146, 153 146.450, 153 147 M 188 156.059 C 188 156.641, 188.450 156.840, 189 156.500 C 189.550 156.160, 190 155.684, 190 155.441 C 190 155.198, 189.550 155, 189 155 C 188.450 155, 188 155.477, 188 156.059 M 611.500 157 C 611.160 157.550, 611.359 158, 611.941 158 C 612.523 158, 613 157.550, 613 157 C 613 156.450, 612.802 156, 612.559 156 C 612.316 156, 611.840 156.450, 611.500 157 M 187.622 159.825 C 187.179 161.104, 187.083 162.417, 187.409 162.742 C 188.445 163.779, 189.174 162.250, 188.794 159.836 L 188.426 157.500 187.622 159.825 M 169 159.996 C 169 161.209, 171.805 162.529, 172.629 161.705 C 172.927 161.406, 172.233 160.660, 171.086 160.046 C 169.639 159.272, 169 159.257, 169 159.996 M 174 163.007 C 174 163.463, 173.727 164.548, 173.393 165.418 C 173.053 166.303, 173.300 167, 173.952 167 C 174.593 167, 174.840 166.550, 174.500 166 C 174.160 165.450, 174.846 165, 176.024 165 C 177.208 165, 177.993 164.480, 177.779 163.837 C 177.332 162.496, 174 161.763, 174 163.007 M 177.079 167.583 C 177.127 168.748, 177.364 168.985, 177.683 168.188 C 177.972 167.466, 177.936 166.603, 177.604 166.271 C 177.272 165.939, 177.036 166.529, 177.079 167.583 M 181.583 167.866 C 181.152 168.563, 181.070 169.403, 181.400 169.733 C 182.295 170.628, 183.271 169.312, 182.787 167.862 C 182.449 166.846, 182.213 166.846, 181.583 167.866 M 187.583 168.643 C 187.237 169.547, 187.189 170.522, 187.476 170.810 C 187.764 171.098, 188 170.808, 188 170.167 C 188 169.525, 188.900 169, 190 169 C 191.100 169, 192 168.550, 192 168 C 192 166.336, 188.260 166.880, 187.583 168.643 M 606.146 169.137 C 605.440 170.269, 605.118 171.451, 605.431 171.764 C 605.744 172.077, 606 171.760, 606 171.060 C 606 170.338, 606.651 170.036, 607.500 170.362 C 609.135 170.989, 609.406 170.187, 608.200 168.290 C 607.649 167.422, 607.067 167.662, 606.146 169.137 M 170 169 C 169.099 169.582, 168.975 169.975, 169.691 169.985 C 170.346 169.993, 171.160 169.550, 171.500 169 C 172.267 167.758, 171.921 167.758, 170 169 M 173.543 170.931 C 173.226 171.443, 173.378 172.115, 173.879 172.425 C 174.380 172.735, 175.048 172.316, 175.364 171.494 C 175.986 169.874, 174.483 169.409, 173.543 170.931 M 182 174.383 C 182 174.594, 182.900 175.002, 184 175.290 C 185.100 175.577, 186 175.405, 186 174.906 C 186 174.408, 185.100 174, 184 174 C 182.900 174, 182 174.173, 182 174.383 M 603.651 175.468 C 603.341 176.275, 603.518 177.202, 604.044 177.527 C 604.570 177.852, 605 177.191, 605 176.059 C 605 173.644, 604.444 173.401, 603.651 175.468 M 184.027 180.983 C 182.267 182.071, 184.991 182.905, 187.446 182.030 C 189.329 181.359, 189.324 181.318, 187.307 180.791 C 186.160 180.491, 184.684 180.577, 184.027 180.983 M 601.329 182.584 C 601.002 183.437, 601.244 184.644, 601.867 185.267 C 602.711 186.111, 603 185.987, 603 184.783 C 603 183.894, 603.540 182.987, 604.199 182.767 C 604.940 182.520, 604.734 182.112, 603.662 181.700 C 602.551 181.274, 601.710 181.593, 601.329 182.584 M 598.658 189.449 C 598.287 190.416, 598.582 190.714, 599.545 190.344 C 600.339 190.040, 600.740 189.388, 600.435 188.895 C 599.669 187.655, 599.303 187.769, 598.658 189.449 M 595.667 192.667 C 594.742 193.591, 594.829 196, 595.787 196 C 596.220 196, 596.642 195.100, 596.725 194 C 596.887 191.851, 596.708 191.625, 595.667 192.667 M 506.559 198.750 C 494.326 218.609, 494.119 219.043, 494.541 224.055 C 494.762 226.685, 495.848 230.449, 496.954 232.419 C 498.061 234.388, 498.524 236, 497.983 236 C 496.452 236, 496.828 238.997, 498.437 239.614 C 499.227 239.917, 499.630 240.801, 499.332 241.577 C 499.034 242.353, 498.318 242.697, 497.741 242.340 C 497.156 241.978, 496.985 242.167, 497.355 242.765 C 497.720 243.356, 497.389 244.468, 496.619 245.238 C 495.793 246.064, 495.376 247.974, 495.600 249.900 C 495.847 252.025, 495.398 253.745, 494.311 254.831 C 492.753 256.390, 492.754 256.521, 494.321 256.823 C 496.069 257.160, 496.700 259, 495.067 259 C 494.554 259, 493.847 259.907, 493.495 261.015 C 493.144 262.123, 492.480 262.797, 492.021 262.513 C 490.783 261.748, 492.142 266.374, 493.412 267.250 C 494.154 267.761, 494.022 268.314, 493 268.985 C 492.175 269.526, 491.893 269.976, 492.372 269.985 C 492.852 269.993, 492.732 270.618, 492.105 271.373 C 491.478 272.129, 491.246 273.479, 491.590 274.373 C 491.933 275.268, 491.727 276, 491.132 276 C 490.416 276, 490.345 276.778, 490.924 278.301 C 491.913 280.903, 491.224 286, 489.883 286 C 489.398 286, 489 287.750, 489 289.889 C 489 292.885, 488.623 293.746, 487.358 293.639 C 486.454 293.563, 485.520 294.175, 485.281 295 C 484.896 296.333, 484.966 296.333, 485.909 295 C 486.791 293.753, 486.972 293.869, 486.985 295.691 C 486.993 296.896, 486.601 298.128, 486.114 298.430 C 485.004 299.116, 484.062 295.721, 483.914 290.500 C 483.852 288.300, 483.468 285.375, 483.060 284 C 481.731 279.511, 481.065 312.409, 480.480 411.497 C 480.165 464.845, 479.561 508.839, 479.138 509.262 C 478.716 509.684, 464.674 509.911, 447.935 509.765 L 417.500 509.500 417 408.500 C 416.717 351.253, 416.177 311.832, 415.755 317.500 C 415.346 323, 415.007 358.550, 415.002 396.500 C 414.993 466.911, 414.347 497, 412.843 497 C 412.380 497, 412 493.373, 412 488.941 C 412 484.068, 411.622 481.116, 411.044 481.473 C 410.518 481.798, 410.369 482.798, 410.714 483.696 C 411.112 484.734, 410.942 485.082, 410.247 484.653 C 409.646 484.281, 408.858 482.628, 408.496 480.980 C 408.134 479.332, 406.920 477.492, 405.798 476.892 C 404.318 476.100, 403.945 476.102, 404.438 476.900 C 404.812 477.505, 404.599 478, 403.965 478 C 403.331 478, 402.577 477.100, 402.290 476 C 402 474.893, 400.926 474, 399.883 474 C 398.724 474, 398 473.295, 398 472.167 C 398 470.881, 397.329 470.387, 395.750 470.511 C 394.247 470.630, 393.284 469.993, 392.850 468.594 C 392.229 466.597, 392.195 466.607, 392.100 468.823 C 392.029 470.471, 391.491 471.049, 390.252 470.810 C 389.290 470.625, 388.459 469.804, 388.404 468.987 C 388.183 465.689, 387.923 465.213, 386.075 464.730 C 384.801 464.397, 384.313 464.653, 384.633 465.486 C 384.921 466.236, 384.083 466.942, 382.558 467.234 C 380.594 467.609, 380 467.312, 380 465.955 C 380 464.626, 379.441 464.323, 377.750 464.735 C 376.512 465.036, 374.825 465.807, 374 466.448 C 373.175 467.089, 371.207 468.166, 369.627 468.841 C 366.854 470.026, 366.771 469.981, 367.238 467.535 C 367.548 465.911, 367.272 465, 366.468 465 C 365.016 465, 363.729 467.752, 364.556 469.090 C 364.865 469.591, 363.516 470, 361.559 470 C 359.387 470, 357.994 469.513, 357.985 468.750 C 357.973 467.815, 357.756 467.836, 357.123 468.835 C 356.486 469.840, 356.080 469.594, 355.478 467.835 C 355.038 466.551, 354.491 435.579, 354.263 399.010 C 353.942 347.490, 353.584 332.968, 352.674 334.510 C 351.797 335.996, 351.527 358.490, 351.607 423.328 L 351.714 510.156 287.872 509.896 C 252.759 509.753, 223.795 509.872, 223.508 510.159 C 223.220 510.447, 224.019 512.216, 225.282 514.091 L 227.580 517.500 384.430 517.500 L 541.279 517.500 544.145 513.959 L 547.011 510.418 547.118 379.959 L 547.224 249.500 535.862 232.271 C 529.613 222.794, 521.482 210.307, 517.794 204.521 C 514.106 198.734, 510.727 194, 510.287 194 C 509.846 194, 508.169 196.137, 506.559 198.750 M 594 199.059 C 594 199.641, 594.450 199.840, 595 199.500 C 595.550 199.160, 596 198.684, 596 198.441 C 596 198.198, 595.550 198, 595 198 C 594.450 198, 594 198.477, 594 199.059 M 181.143 200.907 C 180.137 201.532, 180.090 201.937, 180.960 202.475 C 182.332 203.323, 183.362 202.572, 182.854 201.095 C 182.646 200.489, 181.940 200.412, 181.143 200.907 M 591.500 203 C 591.160 203.550, 591.359 204, 591.941 204 C 592.523 204, 593 203.550, 593 203 C 593 202.450, 592.802 202, 592.559 202 C 592.316 202, 591.840 202.450, 591.500 203 M 597.553 202.915 C 597.231 203.436, 597.394 204.125, 597.915 204.447 C 598.436 204.769, 599.125 204.606, 599.447 204.085 C 599.769 203.564, 599.606 202.875, 599.085 202.553 C 598.564 202.231, 597.875 202.394, 597.553 202.915 M 589 214.500 C 589 215.325, 589.177 216, 589.393 216 C 589.609 216, 590.045 215.325, 590.362 214.500 C 590.678 213.675, 590.501 213, 589.969 213 C 589.436 213, 589 213.675, 589 214.500 M 593.575 217.879 C 593.265 218.380, 593.684 219.048, 594.506 219.364 C 595.328 219.679, 596 219.528, 596 219.028 C 596 217.672, 594.223 216.830, 593.575 217.879 M 478.243 252.177 C 477.690 254.292, 477.628 254.304, 476.866 252.446 C 476.425 251.370, 476.132 257.057, 476.210 265.161 L 476.352 279.822 479.426 280.180 L 482.500 280.538 482.430 267.717 C 482.391 260.665, 482.729 254.668, 483.180 254.389 C 484.660 253.474, 484.043 252.340, 481.411 251.142 C 479.090 250.084, 478.763 250.191, 478.243 252.177 M 490.500 290 C 490.160 290.550, 490.359 291, 490.941 291 C 491.523 291, 492 290.550, 492 290 C 492 289.450, 491.802 289, 491.559 289 C 491.316 289, 490.840 289.450, 490.500 290 M 488 295.882 C 488 296.432, 488.450 297.160, 489 297.500 C 489.550 297.840, 490 297.668, 490 297.118 C 490 296.568, 489.550 295.840, 489 295.500 C 488.450 295.160, 488 295.332, 488 295.882 M 384.959 468.076 C 383.940 469.981, 384.022 470.059, 385.952 469.026 C 387.109 468.406, 387.792 467.472, 387.469 466.950 C 386.616 465.570, 386.201 465.756, 384.959 468.076 M 389.847 501.679 C 390.756 502.371, 391.050 502.996, 390.500 503.068 C 389.950 503.140, 390.625 503.582, 392 504.049 C 394.222 504.804, 394.111 504.876, 391 504.699 C 389.075 504.590, 387.163 504.050, 386.750 503.500 C 386.280 502.873, 385.637 503.060, 385.028 504 C 384.213 505.257, 385.199 505.662, 391.120 506.500 C 395.004 507.050, 397.842 507.837, 397.425 508.250 C 397.008 508.663, 398.767 509, 401.333 509 C 405.789 509, 407.420 507.842, 404.750 506.572 C 404.063 506.245, 404.512 506.166, 405.749 506.395 C 406.986 506.624, 408.250 506.404, 408.558 505.906 C 408.866 505.408, 408.491 505, 407.726 505 C 406.960 505, 406.333 504.325, 406.333 503.500 C 406.333 502.675, 406.933 502, 407.667 502 C 408.400 502, 409 501.522, 409 500.938 C 409 500.239, 405.444 499.969, 398.597 500.149 C 389.997 500.375, 388.481 500.640, 389.847 501.679 M 383.750 501.662 C 384.438 501.940, 385.563 501.940, 386.250 501.662 C 386.938 501.385, 386.375 501.158, 385 501.158 C 383.625 501.158, 383.063 501.385, 383.750 501.662 M 356.500 503 C 356.840 503.550, 357.541 504, 358.059 504 C 358.577 504, 359 503.550, 359 503 C 359 502.450, 358.298 502, 357.441 502 C 356.584 502, 356.160 502.450, 356.500 503 M 361 504.406 C 361 505.324, 361.700 505.630, 363.016 505.286 C 366.089 504.482, 366.442 503, 363.559 503 C 362.027 503, 361 503.564, 361 504.406 M 399 505.833 C 399 507.165, 399.625 508, 400.622 508 C 402.011 508, 402.052 507.748, 400.905 506.250 C 400.169 505.288, 399.439 504.313, 399.283 504.083 C 399.127 503.854, 399 504.642, 399 505.833 M 377.762 505.707 C 379.006 505.946, 380.806 505.937, 381.762 505.687 C 382.718 505.437, 381.700 505.241, 379.500 505.252 C 377.300 505.263, 376.518 505.468, 377.762 505.707 M 383.500 508 C 380.936 508.653, 381.262 508.781, 385.750 508.882 C 388.662 508.947, 391 508.555, 391 508 C 391 506.869, 387.944 506.869, 383.500 508 M 349 545.882 C 349 546.432, 349.450 547.160, 350 547.500 C 350.550 547.840, 351 547.668, 351 547.118 C 351 546.568, 350.550 545.840, 350 545.500 C 349.450 545.160, 349 545.332, 349 545.882 M 351.500 550 C 351.840 550.550, 352.316 551, 352.559 551 C 352.802 551, 353 550.550, 353 550 C 353 549.450, 352.523 549, 351.941 549 C 351.359 549, 351.160 549.450, 351.500 550 M 458 563.656 C 453.833 564.742, 448.824 564.950, 437.329 564.513 C 428.665 564.184, 421.918 564.324, 421.598 564.841 C 420.858 566.038, 454.552 566.927, 458.642 565.818 C 460.370 565.349, 462.337 564.298, 463.014 563.483 C 463.691 562.667, 464.077 562.050, 463.872 562.111 C 463.668 562.171, 461.025 562.867, 458 563.656" stroke="none" fill="black" fill-rule="evenodd"/>
</svg>